<?xml version="1.0" standalone="no"?>
<!DOCTYPE svg PUBLIC "-//W3C//DTD SVG 20010904//EN"
 "http://www.w3.org/TR/2001/REC-SVG-20010904/DTD/svg10.dtd">
<svg version="1.0" xmlns="http://www.w3.org/2000/svg"
 width="2400.000000pt" height="2400.000000pt" viewBox="0 0 2400.000000 2400.000000"
 preserveAspectRatio="xMidYMid meet">
<metadata>
Created by potrace 1.14, written by Peter Selinger 2001-2017
</metadata>
<g transform="translate(0.000000,2400.000000) scale(0.100000,-0.100000)"
fill="#000000" stroke="none">
<path d="M11930 22194 c-1172 -55 -2170 -258 -3210 -654 -357 -136 -892 -384
-1235 -575 -1140 -631 -2147 -1480 -2961 -2495 -622 -775 -1127 -1645 -1491
-2570 -613 -1553 -822 -3245 -607 -4920 229 -1798 951 -3498 2089 -4925 417
-523 952 -1066 1465 -1486 800 -655 1682 -1175 2640 -1557 2173 -867 4652
-928 6866 -171 1563 534 2942 1428 4075 2642 961 1029 1701 2272 2148 3604
495 1477 636 3037 415 4593 -234 1650 -899 3242 -1911 4575 -676 890 -1483
1651 -2408 2270 -1167 781 -2476 1302 -3858 1535 -344 58 -655 94 -1042 120
-152 11 -837 20 -975 14z m920 -499 c1550 -97 2957 -531 4290 -1324 187 -111
545 -348 730 -484 80 -59 153 -107 162 -107 10 0 18 -6 18 -14 0 -11 195 -175
218 -184 4 -1 14 9 23 23 l15 26 190 -180 c394 -376 895 -923 1239 -1356 512
-642 854 -1207 1175 -1936 339 -770 627 -1722 694 -2292 8 -67 24 -178 35
-247 111 -680 129 -1610 45 -2375 -159 -1452 -628 -2799 -1402 -4030 -1105
-1754 -2768 -3102 -4723 -3828 -858 -318 -1735 -503 -2709 -569 -231 -15 -897
-15 -1130 1 -1299 88 -2456 392 -3585 942 -379 185 -711 377 -1122 650 -947
630 -1824 1491 -2485 2439 -582 837 -1019 1743 -1306 2706 -216 724 -338 1439
-382 2234 -12 216 -12 728 0 915 l8 130 -49 100 -50 100 35 235 c284 1934
1005 3599 2181 5040 270 331 625 711 968 1037 126 120 234 221 240 224 7 4 48
15 91 24 73 16 88 24 169 89 205 162 184 137 242 281 48 116 56 130 77 128 13
-1 62 -7 111 -13 l87 -12 138 90 c275 180 571 353 864 506 131 69 173 96 201
129 31 38 64 56 274 154 236 111 239 112 358 128 66 9 152 28 190 42 60 22 83
38 165 118 l95 92 230 32 c207 29 230 31 241 17 10 -14 29 -11 180 29 569 152
1240 257 1874 294 239 14 840 12 1090 -4z"/>
<path d="M13130 21027 c-143 -373 -395 -1005 -404 -1014 -17 -17 -413 -190
-681 -296 -251 -100 -515 -195 -747 -268 l-136 -44 -181 -285 c-174 -274 -183
-286 -233 -314 -29 -15 -83 -46 -120 -68 l-67 -39 26 -54 c15 -30 31 -55 35
-55 5 0 69 35 143 77 l135 77 178 282 177 281 190 63 c412 136 781 278 1175
451 l207 92 208 526 c114 289 209 535 212 547 4 17 -4 24 -52 41 l-56 21 -9
-21z"/>
<path d="M9701 20642 c6 -15 690 -484 697 -477 8 8 13 5 -343 250 -330 228
-361 248 -354 227z"/>
<path d="M8293 20272 c-18 -9 -33 -18 -33 -21 1 -18 21 -32 51 -37 l35 -6 -4
36 c-2 20 -7 38 -11 40 -3 2 -21 -3 -38 -12z"/>
<path d="M9000 20033 c0 -2 29 -61 64 -131 46 -92 71 -131 89 -139 23 -11 20
-1 -40 127 -54 112 -70 139 -89 143 -13 2 -24 3 -24 0z"/>
<path d="M7889 19752 c-108 -75 -211 -149 -230 -164 -29 -22 -51 -61 -124
-227 l-89 -201 -108 0 -108 0 -15 -36 c-8 -20 -15 -40 -15 -45 0 -5 78 -9 173
-9 l172 0 89 200 88 200 62 43 c210 150 399 277 410 277 7 0 91 -27 186 -60
l173 -60 353 -241 354 -240 174 158 175 158 -50 22 c-91 41 -79 46 -247 -106
l-152 -139 -358 243 -358 242 -178 62 c-97 33 -178 61 -179 61 -1 0 -90 -62
-198 -138z"/>
<path d="M7263 19665 l-51 -34 -7 -68 c-4 -37 -7 -70 -8 -74 -1 -3 -87 -85
-192 -182 l-190 -177 -380 -225 c-324 -191 -389 -234 -444 -289 l-64 -65 45
-153 c42 -141 48 -154 77 -172 18 -10 34 -16 37 -14 2 3 -14 67 -37 143 -26
89 -37 141 -31 147 6 6 206 126 446 267 414 243 442 262 539 352 l102 96 75
189 c48 120 87 202 108 227 26 32 42 67 29 67 -1 0 -25 -16 -54 -35z"/>
<path d="M17426 19480 l50 -51 80 3 79 3 -66 48 c-63 44 -70 47 -130 47 l-64
0 51 -50z"/>
<path d="M16400 19309 c-186 -174 -197 -186 -247 -278 -29 -53 -53 -103 -53
-111 0 -8 23 -74 51 -147 l51 -132 -82 -223 c-46 -123 -86 -233 -91 -245 -8
-22 -11 -21 -124 43 -64 36 -118 64 -121 62 -2 -2 11 -18 29 -35 35 -34 297
-186 305 -178 3 3 44 110 92 239 l87 234 -54 142 -54 142 53 100 c52 99 56
103 252 284 110 101 205 184 212 184 13 0 54 68 54 90 0 6 -32 10 -82 10 l-83
0 -195 -181z"/>
<path d="M13402 19333 c2 -7 -93 -76 -210 -153 l-213 -140 -69 45 c-38 24 -72
40 -75 35 -5 -8 62 -57 193 -139 l52 -33 210 137 c116 75 210 140 210 144 -1
3 -24 31 -51 61 -28 30 -49 50 -47 43z"/>
<path d="M8840 19150 l0 -110 -146 0 -146 0 -108 75 c-60 41 -116 75 -126 75
-10 0 61 -54 156 -120 l175 -119 143 -1 142 0 0 138 0 138 -35 17 c-20 9 -40
17 -45 17 -6 0 -10 -46 -10 -110z"/>
<path d="M17040 18793 c-14 -2 -90 -13 -170 -24 -80 -11 -153 -22 -162 -25
-15 -4 -18 -17 -18 -66 0 -47 3 -59 14 -55 8 3 52 13 97 23 74 15 96 26 183
86 55 37 96 67 90 67 -5 -1 -20 -4 -34 -6z"/>
<path d="M8266 18624 c-15 -69 -25 -128 -23 -130 2 -3 29 5 60 16 58 22 60 24
77 105 6 28 13 57 16 66 3 12 -9 25 -42 43 -26 14 -50 26 -53 26 -4 0 -20 -57
-35 -126z"/>
<path d="M15330 18484 c-80 -58 -150 -108 -157 -112 -9 -6 -8 -24 5 -80 l17
-72 175 126 c96 69 181 131 188 138 10 10 5 21 -29 59 -22 26 -44 47 -47 47
-4 0 -72 -48 -152 -106z"/>
<path d="M8733 18523 c-8 -3 7 -43 48 -126 l61 -121 -36 -119 c-20 -66 -35
-121 -34 -123 10 -8 108 -31 111 -26 3 4 15 42 27 84 l23 78 -28 62 c-51 115
-145 298 -153 297 -4 0 -12 -3 -19 -6z"/>
<path d="M14460 18303 c37 -82 89 -202 115 -268 46 -113 78 -165 117 -186 12
-7 4 22 -32 108 -70 171 -84 203 -157 356 -56 116 -70 137 -89 137 -21 0 -18
-8 46 -147z"/>
<path d="M15568 18139 l-48 -31 0 -77 0 -77 50 -10 50 -11 0 119 c0 65 -1 118
-2 118 -2 0 -24 -14 -50 -31z"/>
<path d="M14053 17960 l-23 -9 19 -48 c10 -26 31 -77 45 -112 14 -36 26 -69
26 -76 0 -6 -54 -37 -120 -70 -67 -33 -118 -65 -116 -71 2 -6 7 -36 11 -67 l7
-56 159 79 159 80 -21 52 c-12 29 -44 110 -71 181 -27 70 -50 127 -51 126 -1
0 -12 -4 -24 -9z"/>
<path d="M6720 17867 c0 -14 80 -381 84 -385 2 -1 13 21 25 51 l22 54 -26 119
c-14 65 -29 125 -33 132 -10 20 -72 44 -72 29z"/>
<path d="M9227 17723 c-3 -5 -17 -51 -32 -104 -15 -53 -30 -100 -33 -106 -4
-5 -144 -56 -312 -112 l-305 -101 -212 0 -213 0 -285 -132 -285 -133 145 -3
144 -3 194 91 194 90 214 0 214 0 301 100 301 101 35 117 35 117 -40 43 c-41
42 -52 48 -60 35z"/>
<path d="M14726 17521 l-139 -139 -137 -27 -138 -27 -6 -56 c-4 -30 -5 -57 -3
-59 3 -2 68 10 145 26 158 34 128 15 265 169 52 59 174 252 159 252 -4 0 -70
-63 -146 -139z"/>
<path d="M9295 16978 l-68 -102 13 -70 c6 -39 14 -81 17 -94 4 -19 23 5 108
135 l103 157 -51 38 c-28 21 -51 38 -52 38 -1 0 -32 -46 -70 -102z"/>
<path d="M8287 16727 l-127 -193 -308 -58 c-169 -31 -314 -59 -322 -62 -8 -2
-78 -94 -155 -204 l-140 -199 -251 -102 -251 -101 -122 -297 c-67 -163 -125
-301 -129 -307 -4 -6 -153 -132 -332 -281 -179 -148 -330 -276 -336 -284 -6
-8 -26 -188 -44 -400 l-33 -387 44 -55 c23 -31 44 -55 46 -53 2 1 19 179 38
395 19 216 37 396 39 399 2 4 155 133 339 287 l336 279 117 286 c64 157 122
295 130 306 9 15 88 52 258 120 l245 97 138 196 c76 107 140 198 143 202 3 4
149 35 325 68 175 34 322 64 326 68 13 15 309 463 309 468 0 3 -35 5 -77 5
l-78 0 -128 -193z"/>
<path d="M15260 16396 c-124 -29 -237 -55 -251 -59 -21 -5 -32 -22 -60 -86
l-34 -79 -160 -100 -160 -100 -90 -224 -90 -223 -214 -105 c-117 -58 -212
-110 -211 -115 2 -6 19 -29 39 -53 l37 -43 214 105 c118 58 219 111 226 118 7
7 51 110 99 228 l86 215 162 102 162 102 33 79 34 79 259 58 c143 32 258 62
257 66 -9 22 -81 89 -95 88 -10 -1 -119 -25 -243 -53z"/>
<path d="M16082 16390 c29 -33 54 -60 56 -60 3 0 -1 7 -8 15 -11 13 -3 15 60
15 l72 0 117 -92 c144 -114 141 -112 141 -104 0 3 -79 69 -177 146 l-176 140
-69 0 -69 0 53 -60z"/>
<path d="M16195 16260 c10 -11 20 -20 23 -20 3 0 -3 9 -13 20 -10 11 -20 20
-23 20 -3 0 3 -9 13 -20z"/>
<path d="M16265 16180 c10 -11 20 -20 23 -20 3 0 -3 9 -13 20 -10 11 -20 20
-23 20 -3 0 3 -9 13 -20z"/>
<path d="M15870 16075 c27 -28 211 -135 234 -135 2 0 6 7 10 15 4 11 -30 33
-137 86 -141 71 -142 71 -107 34z"/>
<path d="M16345 16090 c10 -11 20 -20 23 -20 3 0 -3 9 -13 20 -10 11 -20 20
-23 20 -3 0 3 -9 13 -20z"/>
<path d="M16375 16039 c-3 -8 -36 -90 -73 -184 l-67 -169 -55 -16 c-52 -15
-57 -19 -87 -75 -18 -33 -33 -65 -33 -71 0 -12 255 57 271 73 4 4 38 84 74
177 74 188 74 184 9 247 -25 24 -35 29 -39 18z"/>
<path d="M17070 15967 l-85 -42 -32 -230 c-17 -126 -32 -242 -32 -257 -1 -18
13 -42 43 -75 53 -58 45 -81 86 231 17 126 33 232 35 236 2 4 40 22 84 41 45
19 80 37 78 40 -2 8 -86 99 -90 98 -1 0 -40 -19 -87 -42z"/>
<path d="M13660 15475 l0 -45 96 0 95 0 -38 45 c-37 43 -40 44 -95 45 l-58 0
0 -45z"/>
<path d="M17691 15355 c18 -25 42 -47 53 -50 12 -2 133 -12 269 -21 l249 -18
100 -63 c75 -48 103 -61 109 -52 4 8 7 14 6 15 -1 1 -72 45 -157 99 l-155 97
-235 19 c-129 10 -243 19 -253 19 -15 0 -13 -7 14 -45z"/>
<path d="M4769 14313 l-34 -118 -220 -5 -220 -5 -262 -199 c-145 -109 -263
-199 -263 -200 0 0 -16 -107 -35 -236 l-36 -235 17 -227 18 -227 47 -25 47
-26 -5 43 c-2 23 -10 112 -16 197 l-12 155 35 242 c20 133 38 244 40 246 3 2
125 95 272 205 l267 202 212 2 212 3 33 114 c19 63 35 115 36 117 2 1 111 -22
243 -52 132 -30 243 -53 247 -52 4 2 -7 20 -25 42 l-33 39 -254 58 c-140 32
-260 58 -266 59 -6 0 -26 -53 -45 -117z"/>
<path d="M20020 14132 l0 -260 48 -35 47 -35 3 226 c1 125 0 236 -3 247 -3 11
-25 42 -50 68 l-45 49 0 -260z"/>
<path d="M18322 14131 l-51 -59 80 -292 80 -293 152 -172 152 -172 59 -169
c145 -418 302 -823 421 -1084 31 -69 63 -142 72 -162 12 -31 20 -38 43 -38
l28 0 -88 203 c-103 238 -234 578 -351 910 l-84 238 -99 112 c-54 62 -122 139
-152 173 l-54 61 -80 292 -81 292 50 56 49 57 -45 53 c-25 29 -46 53 -47 53
-1 0 -25 -27 -54 -59z"/>
<path d="M20593 14001 c-94 -14 -174 -29 -177 -32 -3 -3 14 -27 37 -53 l42
-48 205 31 205 30 45 -42 c25 -23 71 -66 103 -97 31 -30 57 -51 57 -48 0 4
-68 70 -152 148 -100 92 -159 140 -173 139 -11 -1 -97 -14 -192 -28z"/>
<path d="M20924 13593 c-10 -15 1 -41 57 -149 l69 -131 0 -209 0 -209 -163
-182 -162 -183 -280 -191 -280 -191 -217 -216 c-120 -119 -215 -218 -213 -220
2 -3 48 -1 102 3 l98 7 165 162 c157 153 179 171 450 356 l285 194 163 183
162 183 0 200 0 201 -107 204 c-60 112 -110 204 -113 205 -3 0 -10 -8 -16 -17z"/>
<path d="M20484 13467 c38 -42 70 -77 73 -77 11 0 -105 131 -129 146 -7 4 18
-27 56 -69z"/>
<path d="M4825 12968 c-10 -65 -85 -666 -85 -688 0 -22 3 -22 51 -17 29 4 53
8 54 9 1 2 22 166 46 366 l45 362 -52 0 c-52 0 -53 -1 -59 -32z"/>
<path d="M3330 12293 c0 -14 75 -63 303 -198 l302 -179 245 -67 c493 -134 471
-129 460 -111 -38 66 -37 65 -429 171 l-374 101 -231 136 c-127 76 -241 144
-253 152 -21 13 -23 13 -23 -5z"/>
<path d="M5183 12183 c-23 -4 -23 -6 -23 -165 l0 -160 73 -205 c70 -200 73
-205 109 -224 l37 -19 -40 113 c-22 61 -49 136 -59 165 -18 47 -20 79 -20 277
l0 225 -27 -1 c-16 -1 -38 -4 -50 -6z"/>
<path d="M20368 11663 l-28 -4 0 -88 0 -87 -214 -524 -214 -525 -194 -218
-193 -218 -162 -342 -162 -342 0 -577 -1 -576 50 -207 c28 -114 50 -213 50
-221 0 -8 -40 -59 -89 -113 -84 -92 -103 -106 -285 -219 -154 -96 -237 -156
-396 -288 -110 -92 -200 -171 -200 -175 0 -4 74 -92 165 -195 158 -179 165
-188 148 -204 -10 -10 -110 -97 -223 -195 -113 -98 -209 -181 -214 -186 -4 -4
11 -64 34 -133 23 -70 39 -133 37 -141 -3 -7 -159 -187 -347 -399 l-341 -386
-232 0 -232 0 -194 -120 c-183 -113 -198 -120 -246 -120 -29 0 -86 -3 -128 -6
l-77 -7 0 86 0 86 -192 -123 c-769 -491 -1615 -914 -2476 -1237 -219 -82 -736
-256 -892 -300 -107 -30 -82 -35 105 -20 1489 123 2929 619 4169 1437 535 352
766 536 1270 1009 157 147 413 416 581 610 761 880 1343 1892 1712 2980 55
165 163 519 163 539 0 6 -34 -52 -76 -129 -384 -705 -808 -1343 -1313 -1978
l-126 -158 -52 213 -52 213 -1 562 0 562 161 346 162 345 196 221 196 221 212
522 213 521 0 148 c0 164 6 152 -72 140z m-1213 -4305 c-66 -79 -403 -443
-502 -540 l-108 -108 -57 64 -58 64 202 169 c148 124 246 196 372 275 94 58
173 107 174 107 2 1 -8 -14 -23 -31z"/>
<path d="M7920 11455 c0 -3 54 -151 121 -329 113 -305 122 -324 147 -329 15
-3 28 -4 30 -3 1 2 -53 152 -120 334 -121 325 -124 332 -150 332 -16 0 -28 -2
-28 -5z"/>
<path d="M4992 11331 c25 -35 520 -392 538 -387 8 3 74 12 145 22 130 17 130
17 172 -4 53 -28 65 -28 61 0 -2 17 -26 32 -108 69 l-105 48 -142 -21 -142
-20 -183 133 c-101 73 -199 144 -218 158 -34 26 -34 26 -18 2z"/>
<path d="M14607 10771 c-120 -76 -222 -142 -227 -147 -5 -5 12 -31 36 -58 l44
-48 235 147 c234 147 235 148 218 169 -44 53 -68 76 -77 75 -6 0 -109 -62
-229 -138z"/>
<path d="M13945 10649 c-115 -99 -211 -184 -212 -187 -2 -4 17 -29 41 -57 l43
-49 216 184 c119 102 216 188 216 191 1 8 -79 99 -87 99 -4 0 -101 -81 -217
-181z"/>
<path d="M15038 10713 c11 -16 31 -38 44 -51 24 -22 28 -22 254 -20 l229 3
-44 48 -44 47 -229 0 -229 0 19 -27z"/>
<path d="M8867 10346 c87 -175 123 -237 141 -246 14 -6 26 -9 28 -8 2 2 -53
111 -120 243 -98 190 -128 241 -145 243 -19 3 -6 -28 96 -232z"/>
<path d="M10726 9158 c-3 -7 -16 -119 -31 -248 -14 -129 -29 -251 -34 -270 -4
-21 -93 -156 -220 -335 -172 -243 -211 -304 -207 -325 3 -14 19 -194 37 -401
l32 -377 -138 -313 c-76 -173 -143 -319 -149 -326 -6 -7 -126 -38 -266 -69
-150 -34 -262 -64 -272 -73 -9 -9 -68 -92 -131 -184 l-115 -168 54 -120 54
-120 -176 -437 c-97 -240 -180 -441 -185 -447 -6 -5 -112 -46 -236 -90 l-227
-80 -53 -140 -54 -140 -101 -102 c-56 -56 -100 -104 -97 -106 2 -3 31 -18 65
-35 l61 -31 90 92 c91 92 91 92 137 217 26 69 50 130 54 136 4 6 110 47 236
91 l229 80 178 446 179 446 -54 120 -54 120 114 168 c63 92 122 175 132 184
10 9 124 40 275 74 141 32 261 63 265 69 5 6 70 152 146 324 l138 314 -36 404
-36 403 214 303 213 304 32 269 c17 149 34 284 36 302 5 30 3 34 -45 58 -37
19 -52 22 -54 13z"/>
<path d="M6055 7780 c10 -11 20 -20 23 -20 3 0 -3 9 -13 20 -10 11 -20 20 -23
20 -3 0 3 -9 13 -20z"/>
<path d="M6130 7715 c19 -19 36 -35 39 -35 3 0 -10 16 -29 35 -19 19 -36 35
-39 35 -3 0 10 -16 29 -35z"/>
<path d="M6210 7645 c19 -19 36 -35 39 -35 3 0 -10 16 -29 35 -19 19 -36 35
-39 35 -3 0 10 -16 29 -35z"/>
<path d="M6295 7570 c21 -22 41 -40 44 -40 3 0 -13 18 -34 40 -21 22 -41 40
-44 40 -3 0 13 -18 34 -40z"/>
<path d="M6380 7495 c19 -19 36 -35 39 -35 3 0 -10 16 -29 35 -19 19 -36 35
-39 35 -3 0 10 -16 29 -35z"/>
<path d="M6465 7420 c21 -22 41 -40 44 -40 3 0 -13 18 -34 40 -21 22 -41 40
-44 40 -3 0 13 -18 34 -40z"/>
<path d="M6550 7345 c19 -19 36 -35 39 -35 3 0 -10 16 -29 35 -19 19 -36 35
-39 35 -3 0 10 -16 29 -35z"/>
</g>
</svg>
